<svg width="1879" height="1987" viewBox="0 0 1879 1987" fill="none" xmlns="http://www.w3.org/2000/svg">
<path d="M0 200C0 89.543 89.5431 0 200 0H1679C1789.46 0 1879 89.5431 1879 200V1787C1879 1897.46 1789.46 1987 1679 1987H200C89.543 1987 0 1897.46 0 1787V200Z" fill="#4682B4"/>
<path d="M998.826 524.174H1055.96C1237.11 524.174 1356.74 604.984 1414.84 766.605C1438.28 833.012 1450 909.428 1450 995.854C1450 1141.36 1421.92 1261.23 1365.77 1355.47C1299.36 1465.82 1196.09 1521 1055.96 1521H998.826V524.174ZM822.312 1521C642.137 1521 522.752 1429.69 464.158 1247.07C440.232 1172.86 428.27 1089.12 428.27 995.854C428.27 805.912 481.004 671.879 586.473 593.754C648.484 547.367 727.098 524.174 822.312 524.174H879.441V1521H822.312Z" fill="white"/>
</svg>
